PathFileType	4	(X/Y/Z)	./resultDataOpenSim/trcMotMarkerGrf/sub10/qtm-15-05.trc
DataRate	CameraRate	NumFrames	NumMarkers	Units	OrigDataRate	OrigDataStartFrame	OrigNumFrames
250.000000	250.000000	13	24	m	250.000000	251	501
Frame#	Time	L.Toe.Tip			R.Toe.Tip			L.Ankle.Lat			R.Ankle.Lat			L.Ankle.Med			R.Ankle.Med			L.Heel			R.Heel			L.Knee.Lat			R.Knee.Lat			L.Knee.Med			R.Knee.Med			L.Thigh.Upper			R.Thigh.Upper			L.ASIS			R.ASIS			V.Sacral			L.Acromium			R.Acromium			C7			L.Elbow			R.Elbow			L.Wrist.Lat			R.Wrist.Lat
		X1	Y1	Z1	X2	Y2	Z2	X3	Y3	Z3	X4	Y4	Z4	X5	Y5	Z5	X6	Y6	Z6	X7	Y7	Z7	X8	Y8	Z8	X9	Y9	Z9	X10	Y10	Z10	X11	Y11	Z11	X12	Y12	Z12	X13	Y13	Z13	X14	Y14	Z14	X15	Y15	Z15	X16	Y16	Z16	X17	Y17	Z17	X18	Y18	Z18	X19	Y19	Z19	X20	Y20	Z20	X21	Y21	Z21	X22	Y22	Z22	X23	Y23	Z23	X24	Y24	Z24

251	1	-0.001888316	-0.056775733	-0.098841935	0.67232074	0.097541284	0.02699284	-0.11783753	0.009244229	-0.13281713	0.5294552	0.10322018	0.062899073	-0.096156698	0.031479857	-0.05131306	0.54984913	0.13369701	-0.019753863	-0.1864812	0.0095260148	-0.08941979	0.48377811	0.073827864	0.014470113	0.079778488	0.33848147	-0.17671769	0.46848226	0.4984214	0.070343577	0.090967451	0.31731317	-0.057192241	0.48299618	0.50838229	-0.055221541	0.12499364	0.72839449	-0.24350401	0.1880575	0.77518311	0.1359192	0.20299122	0.83326153	-0.19935441	0.24684954	0.85500031	0.049603491	0.02599191	0.87409282	-0.039246526	0.21576553	1.3371324	-0.21108199	0.17757619	1.3469027	0.07315972	0.12463436	1.3523792	-0.081968732	0.18311047	1.1184597	-0.4785775	0.015158512	1.150138	0.31610038	0.37639937	1.2037066	-0.62536232	0.084168712	1.2917617	0.51664581
252	1.004	-0.0014786433	-0.056702889	-0.09879258	0.68699547	0.09611105	0.021567017	-0.11606302	0.01207561	-0.13308271	0.54401805	0.10225787	0.060221944	-0.094030962	0.034061589	-0.052032569	0.56340781	0.13333553	-0.022248103	-0.18439403	0.013259999	-0.089760326	0.49787429	0.073417917	0.012356021	0.081064241	0.3420935	-0.17732916	0.47351745	0.4960972	0.069658627	0.091492301	0.32079948	-0.057685369	0.48794901	0.50593703	-0.055979321	0.13085895	0.73109522	-0.24370331	0.195973	0.77871563	0.13506876	0.20961932	0.83666697	-0.19991037	0.25521614	0.85921579	0.048562735	0.034194642	0.87686431	-0.039231975	0.2215174	1.3408443	-0.21033081	0.18310947	1.3501764	0.073147453	0.13097085	1.3554582	-0.081644909	0.19095748	1.1238197	-0.47831151	0.018102459	1.1548463	0.31476407	0.38334096	1.2104273	-0.62481992	0.086103077	1.2971604	0.51540499
253	1.008	-0.00095004587	-0.056606794	-0.098757169	0.70088837	0.094711966	0.016247734	-0.11408216	0.014958935	-0.13333839	0.55798398	0.10146176	0.057583214	-0.091523944	0.036745868	-0.05275578	0.57623872	0.13305496	-0.024676279	-0.18211029	0.017091034	-0.090113541	0.51138713	0.073180917	0.010197493	0.082590036	0.34576317	-0.17796571	0.47851639	0.49376503	0.068995804	0.092297519	0.32441881	-0.058241915	0.49288459	0.50344161	-0.056762895	0.13675848	0.73385043	-0.24390748	0.20399422	0.78220506	0.13418955	0.21634611	0.84006956	-0.20041647	0.26365632	0.86341664	0.047476616	0.042841474	0.87925727	-0.039404863	0.22720541	1.3445241	-0.20956063	0.18861368	1.353404	0.073182596	0.13730514	1.3585068	-0.08128797	0.19796087	1.1284967	-0.47790414	0.02107257	1.1593785	0.31339898	0.39015491	1.2168544	-0.62421467	0.088199452	1.302233	0.51418535
254	1.012	-0.00031845806	-0.056500341	-0.098738346	0.71398051	0.093334438	0.011083905	-0.11193639	0.017911519	-0.13368548	0.57126848	0.10083903	0.054997588	-0.088707538	0.039481882	-0.053497359	0.58836392	0.13283894	-0.027064094	-0.17954854	0.0210654	-0.09037358	0.52425514	0.073106522	0.0080192032	0.084330324	0.34948315	-0.17864702	0.48349542	0.49146009	0.068338935	0.093419443	0.32815659	-0.058873777	0.49779901	0.50092756	-0.057575455	0.14259688	0.73668211	-0.24405299	0.21212619	0.78565655	0.13329151	0.22316083	0.84345521	-0.20087632	0.27210425	0.86757881	0.046369283	0.051846202	0.88135802	-0.039792292	0.23283788	1.3481552	-0.20877825	0.1940945	1.3565735	0.073274234	0.1436162	1.3615386	-0.080868595	0.20393147	1.132958	-0.47708828	0.024072906	1.1637501	0.31199419	0.39684132	1.2229957	-0.62355624	0.090501545	1.3069721	0.5129864
255	1.016	0.00038720143	-0.05639382	-0.098743884	0.7262553	0.091942418	0.0061177374	-0.1096591	0.02092907	-0.13415932	0.58377955	0.10036634	0.052470309	-0.085633824	0.042234938	-0.054284078	0.59981727	0.13266706	-0.029439606	-0.17667024	0.025189334	-0.090500938	0.53639323	0.073166043	0.0058590469	0.086282036	0.35325551	-0.17939921	0.48848113	0.48922462	0.067683535	0.094872706	0.33197235	-0.059589936	0.50269289	0.49843078	-0.058415657	0.14839399	0.73962063	-0.2441776	0.22037782	0.78907427	0.13238962	0.23008684	0.84681698	-0.20130115	0.28044281	0.87169589	0.045287865	0.060861541	0.88341085	-0.04024468	0.23841389	1.3517178	-0.20798638	0.19953997	1.3596706	0.073438786	0.14988584	1.3645411	-0.080379111	0.20873312	1.1377575	-0.47521458	0.027110627	1.1679786	0.31054508	0.4034116	1.2288764	-0.62286188	0.093015756	1.3113725	0.51181726
256	1.02	0.0011395967	-0.056292577	-0.098790225	0.73769321	0.090477928	0.0013872938	-0.1072533	0.023978132	-0.13472522	0.59547196	0.099991552	0.049981367	-0.082342872	0.044977567	-0.055151011	0.6106382	0.13252616	-0.031836609	-0.17349991	0.029415272	-0.090547179	0.54774216	0.073313484	0.003718883	0.088439889	0.35706264	-0.18023117	0.49350108	0.48709557	0.067030238	0.09665978	0.33580226	-0.060386285	0.5075694	0.49598783	-0.059276588	0.15426521	0.7426974	-0.24438565	0.22876353	0.79244344	0.13150568	0.23714674	0.85014214	-0.20169843	0.28856327	0.87576781	0.04426356	0.069541163	0.88560186	-0.040537552	0.24392695	1.3551905	-0.2071828	0.20494484	1.3626803	0.073673027	0.15611727	1.3674885	-0.079832844	0.21248126	1.1430238	-0.47200795	0.030196281	1.172073	0.30905319	0.40987799	1.2345244	-0.6221493	0.095705306	1.3154346	0.51070502
257	1.024	0.0019211089	-0.056206143	-0.098896055	0.74827192	0.088887483	-0.003065484	-0.10470223	0.027025213	-0.13535527	0.60636108	0.099635923	0.047482266	-0.078851324	0.047685137	-0.0561222	0.62084866	0.13239563	-0.034267766	-0.17006932	0.033690524	-0.090575657	0.55829041	0.073501684	0.0015511707	0.090761762	0.36087547	-0.18114929	0.49856749	0.48508411	0.066375227	0.098790412	0.33958934	-0.061249355	0.51243543	0.49363584	-0.060146636	0.16027958	0.74592065	-0.2447202	0.23729719	0.79573824	0.1306572	0.24435115	0.85340768	-0.2020686	0.29651436	0.87976241	0.04324722	0.077898265	0.88793382	-0.040643841	0.2493702	1.3585572	-0.20636922	0.21031629	1.3655919	0.073962578	0.16232468	1.3703676	-0.079238124	0.21587859	1.1483077	-0.46823395	0.033342207	1.1760271	0.30752392	0.41624018	1.2399493	-0.62142758	0.0985189	1.3191636	0.50967898
258	1.028	0.0027341026	-0.056143993	-0.099067995	0.7579835	0.087133698	-0.007196309	-0.10198373	0.030053707	-0.13606002	0.61647117	0.099218847	0.04493989	-0.075149533	0.050340138	-0.057213934	0.63044292	0.13223324	-0.036716884	-0.16638739	0.037987359	-0.090621399	0.56806189	0.073685637	-0.00071345647	0.093174038	0.36468156	-0.18218428	0.50367734	0.48317694	0.065716442	0.10129206	0.34330949	-0.062183517	0.51731151	0.49141704	-0.061013691	0.16639652	0.74926064	-0.24511631	0.24598493	0.79894099	0.1298482	0.25170418	0.85658631	-0.20241178	0.30450625	0.88361981	0.042139413	0.086174663	0.89033646	-0.040711042	0.25474216	1.3618069	-0.20555597	0.21567651	1.368396	0.074303065	0.1685148	1.3731702	-0.078594376	0.21997371	1.1530306	-0.4652196	0.036569426	1.1798213	0.30597441	0.42249464	1.2451408	-0.62069949	0.10143474	1.3225637	0.50875008
259	1.032	0.0036037443	-0.056107026	-0.099284325	0.76684679	0.08519747	-0.010962885	-0.099079421	0.033054819	-0.13686116	0.62575905	0.098710399	0.042389393	-0.071216523	0.052931356	-0.058450306	0.6394004	0.13198896	-0.039162068	-0.16245184	0.04229428	-0.090708595	0.57706643	0.073819532	-0.0031059877	0.095615845	0.36848196	-0.18337005	0.50882681	0.48135376	0.065061443	0.10419693	0.34695984	-0.063223604	0.52223079	0.48937594	-0.061866493	0.17255079	0.75266257	-0.24547826	0.25482478	0.80204451	0.12907264	0.25919811	0.8596528	-0.20273244	0.31270558	0.88730675	0.040899206	0.094543857	0.89275003	-0.040858199	0.2600514	1.3649289	-0.20475254	0.22106512	1.3710751	0.074697748	0.17468387	1.3758792	-0.077902944	0.22528848	1.1570263	-0.46361451	0.039912903	1.1834265	0.30444205	0.42865231	1.2500846	-0.61996513	0.10446132	1.3256371	0.50791422
260	1.036	0.0045639669	-0.05609213	-0.099509242	0.77490131	0.083078883	-0.014331285	-0.095979805	0.0360141	-0.13777276	0.63415108	0.098122306	0.039896485	-0.067038015	0.055452221	-0.059858012	0.64769977	0.13162903	-0.041585662	-0.15826281	0.046601733	-0.090870306	0.58528655	0.073864348	-0.0056031236	0.098077092	0.37227056	-0.18469722	0.51401668	0.47959818	0.064420396	0.10751365	0.35052292	-0.064399015	0.52722328	0.48754641	-0.062691193	0.17874925	0.75606889	-0.24577023	0.26381469	0.80504339	0.12832723	0.2668136	0.86258792	-0.20303578	0.32112071	0.89083116	0.039570339	0.10303847	0.89512106	-0.041108848	0.26531384	1.3679151	-0.20395807	0.22650276	1.373609	0.075150663	0.18082889	1.3784736	-0.077169004	0.2314741	1.1605139	-0.46303706	0.043407756	1.1868185	0.3029738	0.43472646	1.2547689	-0.61922175	0.1076023	1.3283852	0.50716446
261	1.04	0.0056315282	-0.056101629	-0.099728596	0.78219245	0.080787994	-0.017288853	-0.092685297	0.038911431	-0.13880939	0.64164962	0.09744526	0.037469059	-0.062618572	0.057906544	-0.061444625	0.6553377	0.13113603	-0.04397217	-0.15382908	0.050898383	-0.091141386	0.59272585	0.073797304	-0.0081777783	0.10060312	0.37603401	-0.1861019	0.51924205	0.47789423	0.063789102	0.11121629	0.35395234	-0.065694162	0.53230424	0.48594156	-0.063469999	0.18505726	0.75943152	-0.24601959	0.27295763	0.80793151	0.12761716	0.27453105	0.86538106	-0.20332264	0.32967035	0.89420105	0.038210614	0.11160309	0.89742392	-0.041429794	0.27054398	1.3707634	-0.20316482	0.23196031	1.3759878	0.075664049	0.18695547	1.3809406	-0.076398032	0.23788995	1.1637176	-0.46280465	0.047049732	1.1900019	0.30159015	0.44071265	1.2591865	-0.61846704	0.11084528	1.3308087	0.50649433
262	1.044	0.0067955603	-0.056140129	-0.099958686	0.78876204	0.078329063	-0.019853254	-0.08920536	0.041730071	-0.1399933	0.64834771	0.096629186	0.035052591	-0.057982529	0.060306349	-0.063192681	0.66234213	0.13049015	-0.04631426	-0.14917241	0.055169091	-0.091538909	0.59943702	0.073610597	-0.010830688	0.10326406	0.3797664	-0.18750566	0.52448719	0.47622394	0.063144477	0.11526776	0.3571961	-0.067062238	0.53747852	0.4845537	-0.06418824	0.19152821	0.76271068	-0.24625739	0.28225454	0.8107009	0.12694585	0.2823376	0.86802899	-0.20359042	0.33826656	0.89739873	0.036846182	0.12013378	0.89969408	-0.041756069	0.27574917	1.3734726	-0.20236813	0.2373981	1.378208	0.076233074	0.19307394	1.383279	-0.075594851	0.24412527	1.1666189	-0.46254179	0.050765921	1.1930202	0.30024582	0.44659379	1.2633359	-0.61770819	0.11417978	1.3329086	0.5058989
263	1.048	0.008030716	-0.056201897	-0.10022659	0.79465041	0.075696944	-0.022065555	-0.085553301	0.044461454	-0.14134894	0.65434858	0.095622033	0.032606182	-0.053168992	0.062657925	-0.065078377	0.66876249	0.12966825	-0.048616903	-0.14432503	0.059391613	-0.092074021	0.60548787	0.073303582	-0.013566329	0.10610583	0.38346985	-0.1888578	0.52973698	0.47457915	0.062463867	0.11965168	0.36023412	-0.068481404	0.54275032	0.48336291	-0.064842736	0.19817717	0.76586693	-0.24647741	0.29169554	0.81333551	0.12630499	0.29022535	0.87052983	-0.20383919	0.34685205	0.90039383	0.035485308	0.12853255	0.90199165	-0.042018554	0.28093295	1.3760403	-0.20156968	0.24282145	1.380262	0.076844225	0.199192	1.3854908	-0.074765978	0.25004291	1.1689723	-0.46222423	0.054455837	1.1959214	0.29884267	0.45235897	1.2672112	-0.61696379	0.11760571	1.3346883	0.50537741
